<?xml version="1.0" standalone="no"?>
<!DOCTYPE svg PUBLIC "-//W3C//DTD SVG 20010904//EN"
 "http://www.w3.org/TR/2001/REC-SVG-20010904/DTD/svg10.dtd">
<svg version="1.0" xmlns="http://www.w3.org/2000/svg"
 width="1000.000000pt" height="1000.000000pt" viewBox="0 0 1000.000000 1000.000000"
 preserveAspectRatio="xMidYMid meet">
<metadata>
Created by potrace 1.11, written by Peter Selinger 2001-2013
</metadata>
<g transform="translate(0.000000,1000.000000) scale(0.100000,-0.100000)"
fill="#000000" stroke="none">
<path d="M0 5000 l0 -5000 5000 0 5000 0 0 5000 0 5000 -5000 0 -5000 0 0
-5000z m4222 1093 l3 -1947 545 499 c564 516 796 738 822 790 39 75 30 149
-25 212 -40 45 -92 69 -185 84 l-72 12 0 68 0 69 855 0 855 0 0 -69 0 -69 -97
-7 c-359 -26 -583 -113 -862 -337 -158 -127 -1141 -1040 -1133 -1053 23 -39
1071 -1359 1242 -1564 298 -359 470 -524 634 -608 65 -33 156 -51 299 -59
l117 -7 0 -74 0 -73 -955 0 -955 0 0 73 0 73 79 11 c135 18 190 59 199 152 4
41 -1 61 -27 116 -45 98 -63 121 -727 971 l-609 779 -3 -50 c-2 -28 -1 -385 1
-795 4 -610 8 -760 20 -827 33 -181 113 -282 250 -319 28 -8 121 -19 205 -26
l152 -12 0 -73 0 -73 -995 0 -995 0 0 74 0 73 108 7 c392 25 496 117 532 471
16 156 8 4446 -8 4561 -25 172 -70 261 -155 307 -35 18 -58 22 -132 22 -76 0
-104 -5 -180 -32 -49 -18 -90 -31 -91 -30 -1 1 -18 35 -38 75 -26 52 -33 74
-24 77 7 3 267 111 578 240 l565 234 102 0 103 1 2 -1947z"/>
</g>
</svg>
